<svg width="16" height="15" viewBox="0 0 16 15" fill="none" xmlns="http://www.w3.org/2000/svg">
    <path d="M1.695.352a1.107 1.107 0 0 0-.562.304C.993.812.89 1 .828 1.22l-.023.14c-.016.188.007.375.07.563.063.172.164.328.305.469l5.25 5.132-5.25 5.133a1.23 1.23 0 0 0-.352.867c0 .313.117.586.352.82l.093.095c.235.187.5.28.797.28.297-.015.555-.124.774-.327l5.273-5.18 5.04 5.156c.25.219.53.328.843.328.328 0 .61-.11.844-.328l.094-.117c.187-.234.273-.492.257-.773a1.1 1.1 0 0 0-.304-.774l-5.086-5.18 5.062-5.18c.235-.234.344-.515.328-.843 0-.328-.117-.602-.351-.82l-.117-.094a1.171 1.171 0 0 0-1.547.07L8.117 5.813 2.844.655a1.177 1.177 0 0 0-.469-.281 1.254 1.254 0 0 0-.54-.07l-.14.047z" fill="#fff"/>
</svg>
