<svg width="44" height="44" viewBox="0 0 44 44" fill="none" xmlns="http://www.w3.org/2000/svg">
    <path d="M29.16 14.838a9.88 9.88 0 0 1 1.145 1.405l10.34-5.972a21.85 21.85 0 0 0-6.917-6.911l-5.96 10.332c.496.34.962.724 1.391 1.146z" fill="#FCAD2A"/>
    <path d="m26.366 12.847 5.957-10.323A21.66 21.66 0 0 0 22.882 0v11.91c1.208.1 2.389.416 3.484.937z" fill="#FDCB2F"/>
    <path d="M32.075 21.122H44a22.134 22.134 0 0 0-.742-4.951 21.804 21.804 0 0 0-1.778-4.5L31.15 17.64a10 10 0 0 1 .925 3.482z" fill="#F63D66"/>
    <path d="M22.882 32.073V44a21.664 21.664 0 0 0 9.442-2.524l-5.968-10.34a9.994 9.994 0 0 1-3.474.937z" fill="#6937DF"/>
    <path d="M14.848 29.143A10.113 10.113 0 0 1 12.5 18.508a10.105 10.105 0 0 1 8.664-6.595V.002a22.14 22.14 0 0 0-5.168.806c-1.744.492-3.42 1.2-4.989 2.107a22.161 22.161 0 0 0-8.064 8.059A21.909 21.909 0 0 0 .77 16.193a22.228 22.228 0 0 0 0 11.598 21.799 21.799 0 0 0 2.176 5.218 22.15 22.15 0 0 0 8.06 8.064 21.745 21.745 0 0 0 4.99 2.101c1.715.479 3.483.749 5.263.804V32.07a10.092 10.092 0 0 1-6.411-2.926z" fill="#fff"/>
    <path d="m31.145 26.32 10.336 5.97a21.832 21.832 0 0 0 1.777-4.497c.434-1.617.683-3.278.742-4.952H32.068a10.098 10.098 0 0 1-.923 3.479z" fill="#D32A50"/>
    <path d="M29.159 29.143c-.428.43-.895.82-1.395 1.165l5.964 10.337a21.882 21.882 0 0 0 6.918-6.912l-10.341-5.977c-.34.496-.723.96-1.146 1.387z" fill="#8740FA"/>
</svg>
